<?xml version="1.0" standalone="no"?>
<!DOCTYPE svg PUBLIC "-//W3C//DTD SVG 20010904//EN"
 "http://www.w3.org/TR/2001/REC-SVG-20010904/DTD/svg10.dtd">
<svg version="1.0" xmlns="http://www.w3.org/2000/svg"
 width="1000.000000pt" height="1000.000000pt" viewBox="0 0 1000.000000 1000.000000"
 preserveAspectRatio="xMidYMid meet">

<g transform="translate(0.000000,1000.000000) scale(0.100000,-0.100000)"
fill="#000000" stroke="none">
<path d="M3275 8836 c-16 -7 -39 -23 -50 -36 -20 -22 -20 -40 -25 -3714 l-5
-3691 -498 -2 c-439 -1 -500 -3 -522 -17 -79 -52 -74 -170 9 -210 31 -15 262
-16 2816 -16 2581 0 2785 1 2817 17 75 35 87 139 23 195 -29 27 -35 28 -138
29 -59 0 -1042 0 -2184 -1 l-2078 0 0 3609 0 3610 1560 0 1560 0 0 -430 c0
-402 -1 -429 -17 -429 -34 0 -183 -58 -235 -91 -123 -78 -251 -230 -298 -357
-71 -188 -61 -412 25 -582 88 -173 267 -318 457 -370 l63 -17 3 -129 3 -128
-470 -471 c-258 -258 -474 -480 -480 -492 -24 -48 -4 -115 43 -147 14 -9 45
-16 72 -16 l47 0 391 388 391 387 3 -709 2 -708 -33 -47 c-19 -25 -235 -346
-480 -713 -396 -591 -447 -672 -447 -705 1 -47 18 -78 56 -104 34 -22 84 -25
123 -5 19 10 157 211 462 670 239 360 437 655 440 655 3 1 201 -292 440 -651
295 -442 444 -657 464 -670 39 -23 82 -23 122 2 40 24 56 54 56 106 0 37 -42
104 -481 760 l-482 719 0 698 c0 383 3 697 8 697 4 0 176 -169 382 -376 206
-206 387 -382 402 -390 85 -45 184 30 170 129 -4 27 -86 114 -483 513 l-480
480 3 128 3 128 73 19 c118 30 205 82 307 184 131 130 194 259 214 439 31 270
-103 538 -341 682 -35 21 -106 53 -158 70 l-95 32 -5 510 c-5 492 -6 511 -25
532 -46 52 41 50 -1777 50 -1383 -1 -1699 -3 -1723 -14z m3606 -1358 c178 -84
279 -243 279 -441 0 -380 -435 -604 -751 -387 -149 102 -231 294 -200 468 17
97 61 183 128 254 108 112 202 150 364 145 97 -3 112 -6 180 -39z"/>
<path d="M160 2282 c0 -5 7 -17 15 -28 13 -17 14 -17 15 -1 0 14 9 17 50 17
28 0 50 5 50 10 0 6 -28 10 -65 10 -36 0 -65 -4 -65 -8z"/>
<path d="M240 2222 c0 -6 -16 -8 -40 -6 -53 6 -54 -16 -3 -51 47 -32 63 -32
63 0 0 16 6 25 15 25 8 0 15 7 15 15 0 8 -4 15 -9 15 -5 0 -16 3 -25 6 -9 3
-16 2 -16 -4z m-3 -37 c9 -25 -2 -27 -28 -6 l-24 20 23 1 c12 0 25 -7 29 -15z"/>
<path d="M226 2111 c-3 -4 -17 -6 -30 -4 -20 4 -26 0 -31 -20 -7 -26 0 -47 14
-47 5 0 6 11 3 25 -3 18 0 25 12 25 9 0 16 -7 16 -15 0 -22 17 -18 23 6 8 29
32 18 32 -14 -1 -30 12 -36 22 -11 14 37 -41 87 -61 55z"/>
<path d="M226 2011 c-3 -4 -17 -6 -30 -4 -20 4 -26 0 -31 -20 -7 -26 0 -47 14
-47 5 0 6 11 3 25 -3 18 0 25 12 25 9 0 16 -7 16 -15 0 -22 17 -18 23 6 8 29
32 18 32 -14 -1 -30 12 -36 22 -11 14 37 -41 87 -61 55z"/>
<path d="M235 1910 c-4 -6 -16 -8 -26 -5 -35 11 -60 -22 -40 -53 10 -17 91
-25 108 -11 18 15 16 44 -3 63 -18 19 -30 20 -39 6z m-27 -37 c-4 -22 -22 -20
-26 1 -2 10 3 16 13 16 10 0 15 -7 13 -17z m60 0 c-2 -10 -10 -18 -18 -18 -8
0 -16 8 -18 18 -2 12 3 17 18 17 15 0 20 -5 18 -17z"/>
<path d="M226 1801 c-3 -4 -17 -6 -30 -4 -20 4 -26 0 -31 -20 -7 -26 0 -47 14
-47 5 0 6 11 3 25 -3 18 0 25 12 25 9 0 16 -7 16 -15 0 -22 17 -18 23 6 8 29
32 18 32 -14 -1 -30 12 -36 22 -11 14 37 -41 87 -61 55z"/>
<path d="M160 1675 c0 -25 5 -45 10 -45 6 0 10 14 10 31 0 27 3 30 23 23 12
-3 34 -13 49 -20 31 -16 38 -17 38 -5 0 7 -108 61 -124 61 -3 0 -6 -20 -6 -45z"/>
<path d="M160 1602 c0 -5 7 -17 15 -28 13 -17 14 -17 15 -1 0 14 9 17 50 17
28 0 50 5 50 10 0 6 -28 10 -65 10 -36 0 -65 -4 -65 -8z"/>
<path d="M160 1516 c0 -24 5 -36 14 -36 8 0 20 -2 28 -5 8 -3 18 6 25 26 14
37 38 34 38 -4 -1 -15 3 -27 7 -27 16 0 21 31 9 56 -15 33 -51 29 -69 -9 -14
-29 -32 -28 -32 3 0 10 -4 22 -10 25 -6 4 -10 -8 -10 -29z"/>
<path d="M190 1449 c0 -5 -4 -7 -10 -4 -5 3 -10 2 -10 -4 0 -5 6 -12 13 -15 9
-5 9 -7 0 -12 -10 -4 -9 -9 2 -20 8 -9 20 -12 26 -8 6 3 14 1 18 -5 5 -8 15
-9 31 -3 19 7 21 10 7 15 -23 9 -22 28 1 20 12 -4 11 0 -7 17 -18 18 -25 20
-32 9 -6 -11 -9 -10 -15 4 -7 19 -24 23 -24 6z m45 -39 c-3 -5 -10 -10 -16
-10 -5 0 -9 5 -9 10 0 6 7 10 16 10 8 0 12 -4 9 -10z"/>
<path d="M140 1280 c0 -6 38 -10 95 -10 57 0 95 4 95 10 0 6 -38 10 -95 10
-57 0 -95 -4 -95 -10z"/>
<path d="M261 1189 c-22 -18 -25 -19 -42 -3 -11 10 -22 14 -27 10 -4 -4 4 -16
17 -27 l23 -19 -46 0 c-34 0 -46 -4 -46 -15 0 -12 15 -15 75 -15 60 0 75 3 75
15 0 9 -9 15 -22 15 l-23 0 24 19 c13 10 22 23 20 29 -2 6 -14 3 -28 -9z"/>
<path d="M190 1081 c0 -27 27 -51 55 -51 24 0 45 25 45 54 0 25 -18 19 -22 -6
-2 -17 -10 -23 -28 -23 -18 0 -26 6 -28 23 -4 27 -22 30 -22 3z"/>
<path d="M206 994 c-19 -18 -20 -28 -6 -55 21 -39 90 -16 90 30 0 16 -30 41
-50 41 -10 0 -26 -7 -34 -16z m59 -29 c0 -22 -31 -33 -47 -17 -17 17 -1 44 24
40 15 -2 23 -10 23 -23z"/>
<path d="M190 900 c0 -5 -7 -10 -15 -10 -8 0 -15 -4 -15 -10 0 -5 6 -10 14
-10 8 0 17 -6 20 -12 5 -10 7 -10 12 0 3 6 21 12 40 12 34 0 56 22 39 38 -4 4
-10 1 -12 -5 -5 -15 -63 -18 -63 -3 0 6 -4 10 -10 10 -5 0 -10 -4 -10 -10z"/>
<path d="M212 810 c-19 -34 -35 -34 -40 -2 -5 30 -22 28 -22 -2 0 -50 54 -61
77 -16 17 34 38 32 38 -3 -1 -32 18 -31 23 2 8 53 -49 69 -76 21z"/>
<path d="M200 675 c-22 -26 3 -65 40 -65 35 0 58 36 45 67 -7 16 -9 15 -13 -7
-6 -40 -22 -48 -22 -12 0 25 -4 32 -19 32 -10 0 -24 -7 -31 -15z m30 -26 c0
-11 -4 -17 -10 -14 -5 3 -10 13 -10 21 0 8 5 14 10 14 6 0 10 -9 10 -21z"/>
<path d="M197 561 c-8 -22 -18 -31 -34 -31 -14 0 -23 -6 -23 -15 0 -23 138
-22 147 2 10 26 -19 68 -50 71 -24 3 -30 -2 -40 -27z m57 3 c28 -11 18 -34
-14 -34 -18 0 -30 5 -30 13 0 25 15 32 44 21z"/>
<path d="M206 464 c-19 -18 -20 -28 -6 -55 21 -39 90 -16 90 30 0 16 -30 41
-50 41 -10 0 -26 -7 -34 -16z m59 -29 c0 -22 -31 -33 -47 -17 -17 17 -1 44 24
40 15 -2 23 -10 23 -23z"/>
<path d="M140 350 c0 -5 11 -10 25 -10 15 0 25 -6 25 -14 0 -45 73 -62 92 -22
20 45 6 56 -72 56 -40 0 -70 -4 -70 -10z m128 -27 c-2 -12 -12 -18 -28 -18
-16 0 -26 6 -28 18 -3 13 3 17 28 17 25 0 31 -4 28 -17z"/>
<path d="M220 246 c-36 -13 -66 -29 -68 -37 -1 -9 20 -21 68 -35 38 -12 70
-17 70 -12 0 6 -9 12 -20 15 -14 4 -20 14 -20 34 0 22 5 29 20 29 11 0 20 7
20 15 0 8 -1 15 -2 14 -2 0 -32 -11 -68 -23z m8 -51 c-7 -7 -48 7 -48 15 0 15
45 16 48 2 2 -8 2 -15 0 -17z"/>
</g>
</svg>
